<svg viewBox="0 0 200 200" xmlns="http://www.w3.org/2000/svg">
  <!-- Background with rounded corners -->
  <rect x="0" y="0" width="200" height="200" fill="#d4f1f9" rx="10" ry="10"/>
  
  <!-- Clip path to ensure all elements respect the rounded corners -->
  <defs>
    <clipPath id="rounded-corners">
      <rect x="0" y="0" width="200" height="200" rx="10" ry="10"/>
    </clipPath>
  </defs>
  
  <!-- Apply clip path to a group containing all landscape elements -->
  <g clip-path="url(#rounded-corners)">
  
  <!-- Mountains in background -->
  <path d="M 0,80 L 40,40 L 70,65 L 120,25 L 160,60 L 200,30 L 200,80 Z" fill="#8eb1c7" />
  <path d="M 0,90 L 60,55 L 100,75 L 150,45 L 200,70 L 200,90 Z" fill="#75a1bc" />
  
  <!-- Ground/hills -->
  <path d="M 0,90 L 0,200 L 200,200 L 200,90 C 160,110 120,95 80,105 C 40,115 30,100 0,90 Z" fill="#7eba7e" />
  
  <!-- Trail winding into distance -->
  <path d="M 20,180 C 30,170 35,175 40,165 C 50,150 45,140 60,130 C 75,120 70,110 85,105 C 100,100 110,105 120,95 C 130,85 140,90 150,80" 
        stroke="#d2b48c" stroke-width="12" fill="none" stroke-linecap="round" />
  <path d="M 20,180 C 30,170 35,175 40,165 C 50,150 45,140 60,130 C 75,120 70,110 85,105 C 100,100 110,105 120,95 C 130,85 140,90 150,80" 
        stroke="#e6d1ab" stroke-width="8" fill="none" stroke-linecap="round" />
  
  <!-- Trees along the trail -->
  <g transform="translate(45,145) scale(0.6)">
    <path d="M 0,0 L -10,15 L -5,15 L -12,30 L -5,30 L -10,45 L 0,45 L 5,45 L 10,45 L 5,30 L 12,30 L 5,15 L 10,15 Z" fill="#2e8b57" />
    <rect x="-2" y="45" width="4" height="7" fill="#8b4513" />
  </g>
  <g transform="translate(80,115) scale(0.5)">
    <path d="M 0,0 L -10,15 L -5,15 L -12,30 L -5,30 L -10,45 L 0,45 L 5,45 L 10,45 L 5,30 L 12,30 L 5,15 L 10,15 Z" fill="#2e8b57" />
    <rect x="-2" y="45" width="4" height="7" fill="#8b4513" />
  </g>
  <g transform="translate(125,85) scale(0.4)">
    <path d="M 0,0 L -10,15 L -5,15 L -12,30 L -5,30 L -10,45 L 0,45 L 5,45 L 10,45 L 5,30 L 12,30 L 5,15 L 10,15 Z" fill="#2e8b57" />
    <rect x="-2" y="45" width="4" height="7" fill="#8b4513" />
  </g>
  
  <!-- NE initials integrated into nature - moved to bottom right and changed to grey -->
  <!-- N made of tree logs/branches -->
  <path d="M 140,170 L 140,140 L 160,170 L 160,140" stroke="#555555" stroke-width="5" fill="none" stroke-linecap="round" stroke-linejoin="round" />
  <!-- E made of tree logs/branches -->
  <path d="M 170,140 L 190,140 M 170,155 L 185,155 M 170,170 L 190,170 M 170,140 L 170,170" stroke="#555555" stroke-width="5" fill="none" stroke-linecap="round" stroke-linejoin="round" />
  
  <!-- Small rocks along the trail -->
  <circle cx="25" cy="175" r="3" fill="#808080" />
  <circle cx="63" cy="125" r="2" fill="#808080" />
  <ellipse cx="95" cy="110" rx="3" ry="2" fill="#808080" />
  <ellipse cx="132" cy="90" rx="2" ry="1" fill="#808080" />
</g> <!-- Close the clipping group -->
</svg>